HIERARCHY
ROOT Hips
{
    OFFSET 0.000000 0.000000 0.000000
    CHANNELS 6 Xposition Yposition Zposition Zrotation Xrotation Yrotation
    JOINT Spine
    {
        OFFSET -0.000000 14.517291 0.000000
        CHANNELS 3 Zrotation Xrotation Yrotation
        JOINT Spine1
        {
            OFFSET -0.000000 37.558300 0.000000
            CHANNELS 3 Zrotation Xrotation Yrotation
            JOINT Neck
            {
                OFFSET -0.000000 37.404057 3.400369
                CHANNELS 3 Zrotation Xrotation Yrotation
                JOINT Head
                {
                    OFFSET -0.000000 24.785618 -3.540803
                    CHANNELS 3 Zrotation Xrotation Yrotation
                    End Site
                    {
                        OFFSET -0.000000 35.408028 0.000000
                    }
                }
            }
            JOINT LeftShoulder
            {
                OFFSET 6.992933 33.973492 -0.192664
                CHANNELS 3 Zrotation Xrotation Yrotation
                JOINT LeftArm
                {
                    OFFSET 21.527611 0.000000 0.000000
                    CHANNELS 3 Zrotation Xrotation Yrotation
                    JOINT LeftForeArm
                    {
                        OFFSET 56.353916 0.000000 0.000000
                        CHANNELS 3 Zrotation Xrotation Yrotation
                        JOINT LeftHand
                        {
                            OFFSET 47.774071 0.000000 0.000000
                            CHANNELS 3 Zrotation Xrotation Yrotation
                            End Site
                            {
                                OFFSET 26.556021 0.000000 0.000000
                            }
                        }
                    }
                }
            }
            JOINT RightShoulder
            {
                OFFSET -7.065357 33.973492 -0.192664
                CHANNELS 3 Zrotation Xrotation Yrotation
                JOINT RightArm
                {
                    OFFSET -21.527611 0.000000 0.000000
                    CHANNELS 3 Zrotation Xrotation Yrotation
                    JOINT RightForeArm
                    {
                        OFFSET -56.353916 0.000000 0.000000
                        CHANNELS 3 Zrotation Xrotation Yrotation
                        JOINT RightHand
                        {
                            OFFSET -47.774071 0.000000 0.000000
                            CHANNELS 3 Zrotation Xrotation Yrotation
                            End Site
                            {
                                OFFSET -26.556021 0.000000 0.000000
                            }
                        }
                    }
                }
            }
        }
    }
    JOINT LeftUpLeg
    {
        OFFSET 17.704014 0.000000 0.000000
        CHANNELS 3 Zrotation Xrotation Yrotation
        JOINT LeftLeg
        {
            OFFSET -0.000000 -81.181816 0.000000
            CHANNELS 3 Zrotation Xrotation Yrotation
            JOINT LeftFoot
            {
                OFFSET -0.000000 -62.821102 0.000000
                CHANNELS 3 Zrotation Xrotation Yrotation
                JOINT LeftToeBase
                {
                    OFFSET -0.000000 -11.507608 26.556021
                    CHANNELS 3 Zrotation Xrotation Yrotation
                    End Site
                    {
                        OFFSET -0.000000 0.000000 7.081605
                    }
                }
            }
        }
    }
    JOINT RightUpLeg
    {
        OFFSET -17.704014 0.000000 0.000000
        CHANNELS 3 Zrotation Xrotation Yrotation
        JOINT RightLeg
        {
            OFFSET -0.000000 -81.181816 0.000000
            CHANNELS 3 Zrotation Xrotation Yrotation
            JOINT RightFoot
            {
                OFFSET -0.000000 -62.821102 0.000000
                CHANNELS 3 Zrotation Xrotation Yrotation
                JOINT RightToeBase
                {
                    OFFSET -0.000000 -11.507608 26.556021
                    CHANNELS 3 Zrotation Xrotation Yrotation
                    End Site
                    {
                        OFFSET -0.000000 0.000000 7.081605
                    }
                }
            }
        }
    }
}
MOTION
Frames:    12
Frame Time:    0.008333
13.924015    156.138550    -114.053223    -0.759991    -7.299901    46.736881    3.174959    -3.218421    2.128601    -12.217684    -0.177719    0.656282    -6.902887    -3.420831    -24.929865    21.161713    8.293184    -23.445049    8.358254    4.079568    -24.359999    -31.908159    25.791964    -49.759235    -18.562056    8.959892    -101.981796    1.261031    -14.366582    -6.956611    -24.324551    -15.551187    -5.486187    33.113190    -20.916439    81.170036    -5.526540    -14.604887    68.111084    5.389312    -10.023964    19.977772    20.998331    -0.540808    -2.421295    -12.163673    33.070396    -20.663572    2.424158    -27.597740    43.273453    0.000000    0.000000    0.000000    -15.823818    -14.261963    -14.335917    9.508211    24.345764    -16.573898    5.555662    7.826475    -15.375141    0.000000    0.000000    0.000000    
13.942591    156.123505    -114.097931    -0.770911    -7.262188    46.659214    3.100065    -3.181116    2.132221    -12.106570    -0.256388    0.650375    -6.811901    -3.317811    -24.925306    21.129910    8.289417    -23.464392    8.351315    4.161642    -24.409760    -31.938753    25.760452    -49.751682    -18.589512    9.007426    -101.923309    1.226814    -14.328688    -6.946807    -24.208517    -15.380209    -5.490224    33.029186    -20.891605    81.146057    -5.190328    -14.389657    66.416565    5.093276    -10.175426    20.304005    20.957918    -0.558372    -2.359086    -12.167061    33.105156    -20.651628    2.429991    -27.639153    43.289612    0.000000    0.000000    0.000000    -15.849365    -14.312889    -14.336436    9.496384    24.327158    -16.546930    5.543311    7.825009    -15.323720    0.000000    0.000000    0.000000    
13.961133    156.108505    -114.144943    -0.786154    -7.224458    46.586399    3.062759    -3.209969    2.105356    -12.034611    -0.214246    0.646201    -6.746883    -3.309990    -24.911921    21.118841    8.346254    -23.473913    8.355515    4.171921    -24.401968    -31.945110    25.770395    -49.754417    -18.600170    8.994473    -101.916153    1.253853    -14.353094    -6.900728    -24.108248    -15.224482    -5.470966    32.856125    -20.866159    81.047432    -5.116503    -14.284378    64.611565    5.352769    -10.170399    20.561787    20.923189    -0.584102    -2.331414    -12.199151    33.139107    -20.612957    2.466581    -27.647213    43.308010    0.000000    0.000000    0.000000    -15.870825    -14.361766    -14.346471    9.474496    24.300615    -16.515554    5.524562    7.843565    -15.267595    0.000000    0.000000    0.000000    
13.977575    156.091232    -114.186714    -0.802742    -7.195170    46.516613    3.015094    -3.242947    2.069315    -11.927821    -0.157386    0.640468    -6.694861    -3.257238    -24.910002    21.129751    8.363510    -23.487131    8.338881    4.188312    -24.387087    -31.954876    25.743692    -49.750507    -18.574766    8.994927    -101.909554    1.116795    -14.309398    -6.898790    -24.029291    -15.079472    -5.453099    32.688007    -20.819565    80.986198    -4.977024    -14.198690    62.797150    5.280341    -10.279475    20.809252    20.899679    -0.602461    -2.300560    -12.253638    33.144394    -20.213739    2.374690    -27.641554    42.976227    0.000000    0.000000    0.000000    -15.885986    -14.405390    -14.359675    9.457407    24.277487    -16.464094    5.530573    7.843170    -15.241661    0.000000    0.000000    0.000000    
13.996695    156.061707    -114.275002    -0.836957    -7.127739    46.433796    3.017432    -3.289179    2.045192    -11.914555    -0.121206    0.635745    -6.682412    -3.356302    -24.905485    21.138601    8.567754    -23.516762    8.360922    4.201501    -24.357767    -31.952347    25.756315    -49.782288    -18.578615    8.966376    -101.883041    1.078280    -14.329412    -6.930473    -23.920849    -14.943414    -5.431479    32.556522    -20.797171    80.894875    -4.783948    -14.055986    61.083012    5.228565    -10.359330    20.740013    20.841433    -0.675483    -2.265935    -12.289604    33.200954    -20.162987    2.428886    -27.690153    43.009075    0.000000    0.000000    0.000000    -15.940653    -14.511547    -14.365540    9.457984    24.273548    -16.423887    5.509264    7.875027    -15.218300    0.000000    0.000000    0.000000    
14.014467    156.046875    -114.318787    -0.854064    -7.097531    46.368126    2.980961    -3.334315    2.013971    -11.845402    -0.051485    0.632651    -6.618172    -3.271043    -24.886312    21.186272    8.513736    -23.500212    8.375864    4.222938    -24.338289    -31.929790    25.779833    -49.825199    -18.538397    8.896749    -101.855728    1.053794    -14.333832    -6.966905    -23.820755    -14.809454    -5.403120    32.437931    -20.760548    80.774651    -4.638313    -13.902703    59.407700    5.273696    -10.363276    20.881720    20.814041    -0.704608    -2.243345    -12.299724    33.265675    -20.471598    2.615636    -27.716200    43.379177    0.000000    0.000000    0.000000    -15.954432    -14.554036    -14.380123    9.437077    24.244474    -16.382710    5.500142    7.887152    -15.186856    0.000000    0.000000    0.000000    
14.032152    156.030609    -114.358017    -0.870343    -7.071389    46.307110    2.961117    -3.375901    1.971643    -11.799212    0.013468    0.625040    -6.494160    -3.119982    -24.862141    21.194675    8.341110    -23.472734    8.391955    4.247870    -24.312702    -31.917572    25.776215    -49.848801    -18.515087    8.861582    -101.835106    1.015687    -14.327806    -6.976991    -23.736219    -14.673796    -5.350019    32.285496    -20.683575    80.584831    -4.557778    -13.808421    57.755512    5.385064    -10.359486    21.269053    20.792261    -0.723036    -2.206031    -12.323514    33.295700    -20.426630    2.644659    -27.743008    43.375961    0.000000    0.000000    0.000000    -15.967562    -14.593717    -14.382469    9.418835    24.221237    -16.338659    5.515502    7.891344    -15.172541    0.000000    0.000000    0.000000    
14.050213    156.014175    -114.398491    -0.883195    -7.046221    46.241959    2.926631    -3.401107    1.939403    -11.724053    0.059792    0.619131    -6.360465    -2.851065    -24.848848    21.221449    8.015160    -23.434715    8.379975    4.267945    -24.306736    -31.925688    25.775839    -49.842937    -18.514965    8.844444    -101.818169    1.009593    -14.337166    -6.980570    -23.667364    -14.502672    -5.314360    32.180550    -20.647411    80.440117    -4.316848    -13.729427    56.143051    5.373173    -10.478975    21.500635    20.770041    -0.734044    -2.166026    -12.350063    33.318077    -20.396654    2.681950    -27.761908    43.388027    0.000000    0.000000    0.000000    -15.985181    -14.632846    -14.362703    9.424569    24.194616    -16.321400    5.505154    7.904113    -15.167201    0.000000    0.000000    0.000000    
14.065370    156.000458    -114.445564    -0.894202    -7.020278    46.173672    2.902123    -3.421980    1.916619    -11.671032    0.107253    0.616336    -6.137170    -2.403759    -24.895464    21.270794    7.471776    -23.442368    8.377310    4.292056    -24.298786    -31.933920    25.740797    -49.850838    -18.548931    8.863770    -101.784439    0.974864    -14.345458    -6.977076    -23.588816    -14.314928    -5.286905    32.006523    -20.581524    80.242722    -4.137329    -13.729649    54.563953    5.409298    -10.627151    21.731756    20.742275    -0.747695    -2.106930    -12.360177    33.350590    -20.383244    2.706808    -27.783506    43.395756    0.000000    0.000000    0.000000    -16.003370    -14.678434    -14.347690    9.416667    24.178968    -16.300568    5.490976    7.919298    -15.127714    0.000000    0.000000    0.000000    
14.083622    155.984558    -114.491638    -0.902363    -6.994463    46.106293    2.877105    -3.439577    1.896015    -11.624995    0.169982    0.616090    -6.351338    -2.926690    -24.815845    21.289690    8.230028    -23.433554    8.387412    4.294228    -24.270134    -31.937216    25.741917    -49.893448    -18.649809    8.911064    -101.735214    1.186709    -14.419413    -6.946694    -23.480257    -14.027679    -5.366269    31.848631    -20.536415    80.187225    -3.982273    -13.749238    53.004200    5.473652    -10.773797    21.869186    20.712389    -0.755854    -2.060168    -12.378221    33.373127    -20.353447    2.737729    -27.804026    43.402786    0.000000    0.000000    0.000000    -16.025126    -14.722673    -14.322903    9.418539    24.167477    -16.298876    5.484455    7.924310    -15.090619    0.000000    0.000000    0.000000    
14.098673    155.969955    -114.538750    -0.908448    -6.974052    46.042332    2.856578    -3.438496    1.876282    -11.596290    0.204448    0.613194    -6.301109    -2.832014    -24.809782    21.357224    8.174472    -23.426762    8.412893    4.322948    -24.256266    -31.953438    25.713743    -49.924793    -18.677614    8.932313    -101.705826    1.212134    -14.422794    -6.895748    -23.341913    -13.830602    -5.333635    31.646120    -20.485548    79.955772    -3.741242    -13.766616    51.554165    5.590288    -10.936666    22.039783    20.686762    -0.761890    -2.010502    -12.388732    33.400818    -20.338402    2.766794    -27.829082    43.409912    0.000000    0.000000    0.000000    -16.042728    -14.758693    -14.296982    9.425345    24.141788    -16.294750    5.484747    7.941116    -15.087778    0.000000    0.000000    0.000000    
14.116840    155.952209    -114.583946    -0.910614    -6.948029    45.977726    2.831750    -3.419519    1.876836    -11.609518    0.229102    0.616407    -6.185043    -2.841640    -24.819929    21.366463    8.221469    -23.466022    8.493792    4.351516    -24.233450    -31.980061    25.720695    -50.005795    -18.668442    8.908879    -101.658257    1.145558    -14.410419    -6.899478    -23.125132    -13.656161    -5.356937    31.456692    -20.398575    79.735535    -3.472931    -13.747791    50.141842    5.779258    -11.047382    22.291689    20.656757    -0.761523    -1.972187    -12.438431    33.387573    -19.941494    2.637562    -27.849451    43.057755    0.000000    0.000000    0.000000    -16.069183    -14.793239    -14.271363    9.437037    24.113571    -16.296946    5.454706    7.949390    -15.052929    0.000000    0.000000    0.000000    
